<?xml version="1.0" encoding="utf-8"?><svg viewBox="0 0 100 100" xmlns="http://www.w3.org/2000/svg" width="200px" height="200px" xmlns:xlink="http://www.w3.org/1999/xlink" style="width:100%;height:100%;background-size:initial;background-repeat-y:initial;background-repeat-x:initial;background-position-y:initial;background-position-x:initial;background-origin:initial;background-color:initial;background-clip:initial;background-attachment:initial;animation-play-state:paused" ><g class="ldl-scale" style="transform-origin:50% 50%;transform:rotate(0deg) scale(0.8, 0.8);animation-play-state:paused" ><path fill="#333" d="M5 5v90h90V5H5zm86 4v36.3H9V9h82zM9 49.3h55V91H9V49.3zM68 91V49.3h23V91H68z" style="fill:rgb(204, 153, 102);animation-play-state:paused" ></path>
<path fill="#333" d="M34.9 65.2c-2.7.4-5.7 2-7.6 4.4l-9.8-5.7c3.8-5.7 10.2-9.6 17.3-10.1v11.4zm22 1.2L47 72.1c.6 1.4.9 2.8.9 4.4 0 1.6-.3 3-.9 4.4l9.9 5.7c1.5-3 2.4-6.5 2.4-10.1 0-3.7-.9-7.1-2.4-10.1zm-30.8 5.7l-9.9-5.7c-1.5 3-2.4 6.5-2.4 10.1 0 3.6.9 7.1 2.4 10.1l9.9-5.7c-.6-1.4-.9-2.8-.9-4.4 0-1.6.4-3.1.9-4.4zM44 67.7c.2-.3.3-.7.5-1 0-.1.1-.2.1-.3.4-.9.8-1.8 1.2-2.6 0-.1.1-.1.1-.2.2-.4.3-.7.5-1.1 0-.1.1-.2.1-.2.2-.4.4-.9.6-1.3.2-.4.3-.8.5-1.1 0-.1.1-.2.1-.2.2-.4.3-.7.4-1v-.1c.2-.4.3-.7.4-1.1v-.1c.6-1.5 1.1-2.7 1.3-3.4-.5.6-1.2 1.6-2.2 2.9l-.1.1c-.2.3-.4.6-.7.9-.2.3-.4.6-.7.9-.1.1-.1.2-.2.2l-.6.9c0 .1-.1.1-.1.2-.3.4-.5.7-.8 1.1 0 .1-.1.1-.1.2l-.6.9c-.1.1-.2.2-.2.3-.6.8-1.1 1.5-1.7 2.3-.1.1-.1.2-.2.2l-.6.9-.2.2c-3.4 4.6-6.4 8.9-6.8 9.5-.8 1.4-.3 3.1 1 3.9 1.4.8 3.1.3 3.9-1 .4-.6 2.6-5.3 4.9-10.5.1-.3.1-.4.2-.4zm5.4-10c-1.2 3-3 7-4.7 10.8.3.3.6.7.9 1.1l9.8-5.7c-1.6-2.4-3.7-4.5-6-6.2zm-2.5-1.5c-2.7-1.4-5.9-2.2-9-2.4v11.4c.7.1 1.4.2 2 .4 2.5-3.3 5.1-6.8 7-9.4z" style="fill:rgb(255, 128, 66);animation-play-state:paused" ></path>
<path fill="#333" d="M19.4 41h-6V17.2h6V41zm9.5-27.8h-6V41h6V13.2zm9.5 12.5h-6V41h6V25.7zm9.5-4.7h-6v20h6V21zm9.5-3.8h-6V41h6V17.2zm9.5 8.5h-6V41h6V25.7zm9.5 6.4h-6V41h6v-8.9zm9.5-3.1h-6v12h6V29z" style="fill:rgb(136, 132, 216);animation-play-state:paused" ></path>


<path d="M70.9 53.5h17v4.9h-17z" fill="#333" style="fill:rgb(204, 153, 102);animation-play-state:paused" ></path>
<path d="M70.9 63.2h12.8v4.9H70.9z" fill="#333" style="fill:rgb(204, 153, 102);animation-play-state:paused" ></path>
<path d="M70.9 72.5H80v4.9h-9.1z" fill="#333" style="fill:rgb(204, 153, 102);animation-play-state:paused" ></path>
<path d="M70.9 81.7h12.8v4.9H70.9z" fill="#333" style="fill:rgb(204, 153, 102);animation-play-state:paused" ></path>
</g></svg>