<?xml version="1.0" encoding="utf-8"?><svg xml:space="preserve" viewBox="0 0 100 100" y="0" x="0" xmlns="http://www.w3.org/2000/svg" id="圖層_1" version="1.1" width="200px" height="200px" xmlns:xlink="http://www.w3.org/1999/xlink" style="width:100%;height:100%;background-size:initial;background-repeat-y:initial;background-repeat-x:initial;background-position-y:initial;background-position-x:initial;background-origin:initial;background-color:initial;background-clip:initial;background-attachment:initial;animation-play-state:paused" ><g class="ldl-scale" style="transform-origin:50% 50%;transform:rotate(0deg) scale(0.8, 0.8);animation-play-state:paused" ><path stroke-miterlimit="10" stroke-linejoin="round" stroke-linecap="round" stroke-width="4" stroke="#333" fill="#333" d="M58.371 18.974h28.724A2.905 2.905 0 0 1 90 21.879v59.623a2.905 2.905 0 0 1-2.905 2.905H58.371c-4.489.014-7.19 1.133-8.195 4.16V23.575c1.705-3.364 4.506-4.774 8.195-4.601z" style="stroke:rgb(204, 153, 102);fill:rgb(204, 153, 102);animation-play-state:paused" ></path>
<path stroke-miterlimit="10" stroke-linejoin="round" stroke-linecap="round" stroke-width="4" stroke="#333" fill="#333" d="M41.629 18.974H12.905A2.905 2.905 0 0 0 10 21.879v59.623a2.905 2.905 0 0 0 2.905 2.905h28.724c4.489.014 7.19 1.133 8.195 4.16V23.575c-1.705-3.364-4.506-4.774-8.195-4.601z" style="stroke:rgb(204, 153, 102);fill:rgb(204, 153, 102);animation-play-state:paused" ></path>
<path stroke-miterlimit="10" stroke-linejoin="round" stroke-linecap="round" stroke-width="4.202" stroke="#333" fill="#e0e0e0" d="M57.584 11.445h25.765a2.89 2.89 0 0 1 2.891 2.891V76.9a2.89 2.89 0 0 1-2.891 2.891H60.555c-5.537.054-8.479 2.939-10.396 8.39V15.613c1.546-3.047 4.083-4.325 7.425-4.168z" style="stroke:rgb(204, 153, 102);fill:rgb(255, 255, 255);animation-play-state:paused" ></path>
<path stroke-miterlimit="10" stroke-linejoin="round" stroke-linecap="round" stroke-width="4.202" stroke="#333" fill="#e0e0e0" d="M42.416 11.445H16.651a2.89 2.89 0 0 0-2.891 2.891V76.9a2.89 2.89 0 0 0 2.891 2.891h22.794c5.537.054 8.479 2.939 10.396 8.39V15.613c-1.546-3.047-4.083-4.325-7.425-4.168z" style="stroke:rgb(204, 153, 102);fill:rgb(255, 255, 255);animation-play-state:paused" ></path>
<g style="animation-play-state:paused" ><path stroke-miterlimit="10" stroke-linejoin="round" stroke-linecap="round" stroke-width="3.583" stroke="#333" fill="none" d="M57.995 22.27c.77-.792 2.709-.728 4.763-.728h15.248" style="stroke:rgb(204, 153, 102);animation-play-state:paused" ></path>
<path stroke-miterlimit="10" stroke-linejoin="round" stroke-linecap="round" stroke-width="3.583" stroke="#333" fill="none" d="M57.995 33.926c.77-.792 2.709-.728 4.763-.728h15.248" style="stroke:rgb(204, 153, 102);animation-play-state:paused" ></path>
<path stroke-miterlimit="10" stroke-linejoin="round" stroke-linecap="round" stroke-width="3.583" stroke="#333" fill="none" d="M57.995 45.582c.77-.792 2.709-.728 4.763-.728h15.248" style="stroke:rgb(204, 153, 102);animation-play-state:paused" ></path>
<path stroke-miterlimit="10" stroke-linejoin="round" stroke-linecap="round" stroke-width="3.583" stroke="#333" fill="none" d="M57.995 57.238c.77-.792 2.709-.728 4.763-.728h15.248" style="stroke:rgb(204, 153, 102);animation-play-state:paused" ></path>
<path stroke-miterlimit="10" stroke-linejoin="round" stroke-linecap="round" stroke-width="3.583" stroke="#333" fill="none" d="M57.995 68.894c.77-.792 2.709-.728 4.763-.728h15.248" style="stroke:rgb(204, 153, 102);animation-play-state:paused" ></path></g>
<g style="animation-play-state:paused" ><path stroke-miterlimit="10" stroke-linejoin="round" stroke-linecap="round" stroke-width="3.583" stroke="#333" fill="none" d="M42.005 22.27c-.77-.792-2.709-.728-4.763-.728H21.995" style="stroke:rgb(204, 153, 102);animation-play-state:paused" ></path>
<path stroke-miterlimit="10" stroke-linejoin="round" stroke-linecap="round" stroke-width="3.583" stroke="#333" fill="none" d="M42.005 33.926c-.77-.792-2.709-.728-4.763-.728H21.995" style="stroke:rgb(204, 153, 102);animation-play-state:paused" ></path>
<path stroke-miterlimit="10" stroke-linejoin="round" stroke-linecap="round" stroke-width="3.583" stroke="#333" fill="none" d="M42.005 45.582c-.77-.792-2.709-.728-4.763-.728H21.995" style="stroke:rgb(204, 153, 102);animation-play-state:paused" ></path>
<path stroke-miterlimit="10" stroke-linejoin="round" stroke-linecap="round" stroke-width="3.583" stroke="#333" fill="none" d="M42.005 57.238c-.77-.792-2.709-.728-4.763-.728H21.995" style="stroke:rgb(204, 153, 102);animation-play-state:paused" ></path>
<path stroke-miterlimit="10" stroke-linejoin="round" stroke-linecap="round" stroke-width="3.583" stroke="#333" fill="none" d="M42.005 68.894c-.77-.792-2.709-.728-4.763-.728H21.995" style="stroke:rgb(204, 153, 102);animation-play-state:paused" ></path></g>
</g></svg>